#N canvas 385 114 716 613 10;
#X obj 344 154 cnv 15 200 30 empty empty empty 20 12 0 14 -261234 -66577
0;
#X text 354 160 Write analysis info;
#X obj 344 372 pack f f;
#X obj 85 421 r lb1;
#X msg 85 442 normalize 0;
#X msg 344 404 write database/string-db-\$1w-\$2ol-0.25b.timid;
#X obj 344 232 t b b;
#X obj 33 105 inlet;
#X msg 33 365 analyze \$1 \$2;
#X obj 33 344 pack f f;
#X obj 13 234 until;
#X msg 59 236 0;
#X obj 198 88 t f f;
#X obj 198 16 r analysis-window-size;
#X obj 213 37 r analysis-overlap;
#X obj 86 318 r analysis-window-size;
#X obj 359 281 r analysis-window-size;
#X obj 450 316 r analysis-overlap;
#X text 342 72 This sub-patch does source training analysis in non
real time. When it finishes you can save the results to an analysis
database file that you can load next time.;
#X msg 147 225 clear;
#X obj 33 126 t b b b;
#X obj 13 213 f;
#X obj 33 285 f;
#X obj 198 67 /;
#X obj 205 153 /;
#X obj 435 346 f;
#X obj 344 311 f;
#X obj 63 285 +;
#X obj 344 207 bng 15 250 50 0 empty empty Store 17 7 0 12 -258113
-1 -1;
#X obj 344 436 s \$1-tID;
#X obj 33 568 s \$1-tID;
#X obj 33 512 bfcc \$1-sample 1;
#X obj 193 123 r \$1-sf-length;
#X obj 147 246 s \$1-tID;
#X connect 2 0 5 0;
#X connect 3 0 4 0;
#X connect 4 0 31 0;
#X connect 5 0 29 0;
#X connect 6 0 26 0;
#X connect 6 1 25 0;
#X connect 7 0 20 0;
#X connect 8 0 31 0;
#X connect 9 0 8 0;
#X connect 10 0 22 0;
#X connect 11 0 22 1;
#X connect 12 0 27 1;
#X connect 12 1 24 1;
#X connect 13 0 23 0;
#X connect 14 0 23 1;
#X connect 15 0 9 1;
#X connect 16 0 26 1;
#X connect 17 0 25 1;
#X connect 19 0 33 0;
#X connect 20 0 21 0;
#X connect 20 1 11 0;
#X connect 20 2 19 0;
#X connect 21 0 10 0;
#X connect 22 0 9 0;
#X connect 22 0 27 0;
#X connect 23 0 12 0;
#X connect 24 0 21 1;
#X connect 25 0 2 1;
#X connect 26 0 2 0;
#X connect 27 0 22 1;
#X connect 28 0 6 0;
#X connect 31 0 30 0;
#X connect 32 0 24 0;
#X coords 0 -1 1 1 85 16 1 100 100;
