#N canvas 499 22 689 695 10;
#X obj 43 619 *~;
#X obj 43 529 +~ 1;
#X obj 485 310 r analysis-window-size;
#X obj 503 330 r analysis-overlap;
#X obj 485 351 /;
#X obj 467 373 *;
#X obj 283 522 -~ 0.5;
#X obj 283 544 *~ 0.5;
#X obj 283 566 cos~;
#X obj 43 505 +~;
#X obj 58 450 r analysis-window-size;
#X obj 43 480 *~;
#X obj 169 357 / 100;
#X obj 43 261 *;
#X obj 43 426 *~;
#X obj 58 181 r analysis-window-size;
#X obj 58 201 / 44.1;
#X obj 43 231 f;
#X obj 221 73 t b b f;
#X obj 169 313 random;
#X obj 169 335 +;
#X obj 217 261 -;
#X obj 257 283 t b f;
#X obj 217 283 + 1;
#X obj 217 237 max;
#X obj 371 237 min;
#X obj 257 209 t b f;
#X obj 411 209 t b f;
#X obj 43 316 vline~;
#X msg 43 290 0 \, 1 \$1;
#X obj 87 44 samplerate~;
#X obj 87 70 / 1000;
#X obj 87 5 loadbang;
#X obj 148 5 r reset;
#X obj 221 51 r \$2-index-\$1;
#X obj 43 641 throw~ \$2-grain-bus;
#X obj 43 556 tabread4~ \$2-sample;
#X obj 217 165 r \$2-grain-size-hi;
#X obj 257 187 r \$2-grain-size-low;
#X obj 371 165 r \$2-grain-size-hi;
#X obj 411 187 r \$2-grain-size-low;
#X connect 0 0 35 0;
#X connect 1 0 36 0;
#X connect 2 0 4 0;
#X connect 3 0 4 1;
#X connect 4 0 5 1;
#X connect 5 0 9 1;
#X connect 6 0 7 0;
#X connect 7 0 8 0;
#X connect 8 0 0 1;
#X connect 9 0 1 0;
#X connect 10 0 11 1;
#X connect 11 0 9 0;
#X connect 12 0 13 1;
#X connect 12 0 14 1;
#X connect 13 0 29 0;
#X connect 14 0 11 0;
#X connect 15 0 16 0;
#X connect 16 0 17 1;
#X connect 17 0 13 0;
#X connect 18 0 17 0;
#X connect 18 1 19 0;
#X connect 18 2 5 0;
#X connect 19 0 20 0;
#X connect 20 0 12 0;
#X connect 21 0 23 0;
#X connect 22 0 21 0;
#X connect 22 1 21 1;
#X connect 22 1 20 1;
#X connect 23 0 19 1;
#X connect 24 0 21 0;
#X connect 25 0 22 0;
#X connect 26 0 24 0;
#X connect 26 1 24 1;
#X connect 27 0 25 0;
#X connect 27 1 25 1;
#X connect 28 0 6 0;
#X connect 28 0 14 0;
#X connect 29 0 28 0;
#X connect 30 0 31 0;
#X connect 31 0 16 1;
#X connect 32 0 30 0;
#X connect 33 0 30 0;
#X connect 34 0 18 0;
#X connect 36 0 0 0;
#X connect 37 0 24 0;
#X connect 38 0 26 0;
#X connect 39 0 25 0;
#X connect 40 0 27 0;
