#N canvas 220 134 601 544 10;
#X obj 44 317 *~;
#X obj 191 215 dbtorms;
#X obj 191 236 pack f 40;
#X obj 191 257 line~;
#X obj 191 147 moses 41;
#X obj 191 169 t b;
#X msg 191 191 0;
#X obj 44 76 hip~ 5;
#N canvas 725 240 450 170 MORE-INFO 0;
#X text 15 30 The [pd grain-players] subpatch has 32 grain playing
abstractions. Every time timbreID puts out the index of the best matching
grain \, it's sent to each of the grain players in sequence and they
play back the right grain \, appropriately enveloped to avoid clicks.
;
#X restore 434 88 pd MORE-INFO;
#N canvas 194 259 627 450 grain-players 1;
#X obj 74 305 outlet~;
#X obj 74 152 f;
#X obj 104 152 + 1;
#X obj 74 174 % 32;
#X obj 74 108 r \$1-index;
#X obj 74 196 pack f f \$1;
#X obj 74 130 t b f b;
#X msg 74 218 \; \$3-index-\$1 \$2 \;;
#X obj 273 67 grain-player 0 \$1;
#X obj 74 281 catch~ \$1-grain-bus;
#X obj 273 87 grain-player 1 \$1;
#X obj 273 107 grain-player 2 \$1;
#X obj 273 127 grain-player 3 \$1;
#X obj 273 147 grain-player 4 \$1;
#X obj 273 167 grain-player 5 \$1;
#X obj 273 187 grain-player 6 \$1;
#X obj 273 207 grain-player 7 \$1;
#X obj 273 227 grain-player 8 \$1;
#X obj 273 247 grain-player 9 \$1;
#X obj 273 267 grain-player 10 \$1;
#X obj 273 287 grain-player 11 \$1;
#X obj 273 307 grain-player 12 \$1;
#X obj 273 327 grain-player 13 \$1;
#X obj 273 347 grain-player 14 \$1;
#X obj 273 367 grain-player 15 \$1;
#X obj 413 67 grain-player 16 \$1;
#X obj 413 87 grain-player 17 \$1;
#X obj 413 107 grain-player 18 \$1;
#X obj 413 127 grain-player 19 \$1;
#X obj 413 147 grain-player 20 \$1;
#X obj 413 167 grain-player 21 \$1;
#X obj 413 187 grain-player 22 \$1;
#X obj 413 207 grain-player 23 \$1;
#X obj 413 227 grain-player 24 \$1;
#X obj 413 247 grain-player 25 \$1;
#X obj 413 267 grain-player 26 \$1;
#X obj 413 287 grain-player 27 \$1;
#X obj 413 307 grain-player 28 \$1;
#X obj 413 327 grain-player 29 \$1;
#X obj 413 347 grain-player 30 \$1;
#X obj 413 367 grain-player 31 \$1;
#X connect 1 0 2 0;
#X connect 1 0 3 0;
#X connect 2 0 1 1;
#X connect 3 0 5 0;
#X connect 4 0 6 0;
#X connect 5 0 7 0;
#X connect 6 0 1 0;
#X connect 6 1 5 1;
#X connect 9 0 0 0;
#X restore 44 39 pd grain-players;
#X obj 44 376 compressor~;
#X obj 107 349 / 100;
#X obj 250 147 sssad/sssad \$1-concat_level;
#X obj 250 172 s \$1-concat-level-set;
#X obj 150 349 sssad/sssad \$1-compressRange_out;
#X obj 150 375 s \$1-compressRange_out-set;
#X obj 107 310 r \$1-compressRange_out;
#X obj 191 84 r \$1-concat-level;
#X obj 44 425 throw~ \$1-master-sum;
#X obj 70 175 env~;
#X floatatom 70 197 5 0 0 0 - - -;
#X connect 0 0 10 0;
#X connect 1 0 2 0;
#X connect 2 0 3 0;
#X connect 3 0 0 1;
#X connect 4 0 5 0;
#X connect 4 1 1 0;
#X connect 5 0 6 0;
#X connect 6 0 1 0;
#X connect 7 0 0 0;
#X connect 7 0 19 0;
#X connect 9 0 7 0;
#X connect 10 0 18 0;
#X connect 11 0 10 1;
#X connect 12 0 13 0;
#X connect 14 0 15 0;
#X connect 16 0 11 0;
#X connect 16 0 14 1;
#X connect 17 0 4 0;
#X connect 17 0 12 1;
#X connect 19 0 20 0;
