#N canvas 0 22 897 465 10;
#X obj 189 67 inlet;
#X obj 247 70 inlet;
#X obj 189 321 soundfiler;
#X obj 247 91 openpanel;
#X obj 282 238 table \$1-sample;
#X obj 247 173 pack s \$1;
#X msg 247 204 read -resize -maxsize 5.8212e+07 \$1 \$2-sample;
#X msg 189 128 read -resize -maxsize 2.7e+07 ../sound/string-corpus.wav
\$1-sample;
#X obj 189 100 pack \$1;
#X obj 189 361 s \$1-sf-length;
#X connect 0 0 8 0;
#X connect 1 0 3 0;
#X connect 2 0 9 0;
#X connect 3 0 5 0;
#X connect 5 0 6 0;
#X connect 6 0 2 0;
#X connect 7 0 2 0;
#X connect 8 0 7 0;
#X coords 0 -1 1 1 85 16 1 100 100;
